<svg class="main-svg" xmlns="http://www.w3.org/2000/svg" xmlns:xlink="http://www.w3.org/1999/xlink" width="3840" height="1080" style="" viewBox="0 0 1920 540"><rect x="0" y="0" width="1920" height="540" style="fill: rgb(255, 255, 255); fill-opacity: 1;"/><defs id="defs-bb5135"><g class="clips"><clipPath id="clipbb5135xyplot" class="plotclip"><rect width="1760" height="332"/></clipPath><clipPath class="axesclip" id="clipbb5135x"><rect x="80" y="0" width="1760" height="540"/></clipPath><clipPath class="axesclip" id="clipbb5135y"><rect x="0" y="100" width="1920" height="332"/></clipPath><clipPath class="axesclip" id="clipbb5135xy"><rect x="80" y="100" width="1760" height="332"/></clipPath></g><g class="gradients"/><g class="patterns"/></defs><g class="bglayer"><rect class="bg" x="80" y="100" width="1760" height="332" style="fill: rgb(229, 236, 246); fill-opacity: 1; stroke-width: 0;"/></g><g class="layer-below"><g class="imagelayer"/><g class="shapelayer"/></g><g class="cartesianlayer"><g class="subplot xy"><g class="layer-subplot"><g class="shapelayer"/><g class="imagelayer"/></g><g class="minor-gridlayer"><g class="x"/><g class="y"/></g><g class="gridlayer"><g class="x"><path class="xgrid crisp" transform="translate(103.16,0)" d="M0,100v332" style="stroke: rgb(255, 255, 255); stroke-opacity: 1; stroke-width: 1px;"/><path class="xgrid crisp" transform="translate(126.32,0)" d="M0,100v332" style="stroke: rgb(255, 255, 255); stroke-opacity: 1; stroke-width: 1px;"/><path class="xgrid crisp" transform="translate(149.47,0)" d="M0,100v332" style="stroke: rgb(255, 255, 255); stroke-opacity: 1; stroke-width: 1px;"/><path class="xgrid crisp" transform="translate(172.63,0)" d="M0,100v332" style="stroke: rgb(255, 255, 255); stroke-opacity: 1; stroke-width: 1px;"/><path class="xgrid crisp" transform="translate(195.79000000000002,0)" d="M0,100v332" style="stroke: rgb(255, 255, 255); stroke-opacity: 1; stroke-width: 1px;"/><path class="xgrid crisp" transform="translate(218.95,0)" d="M0,100v332" style="stroke: rgb(255, 255, 255); stroke-opacity: 1; stroke-width: 1px;"/><path class="xgrid crisp" transform="translate(242.11,0)" d="M0,100v332" style="stroke: rgb(255, 255, 255); stroke-opacity: 1; stroke-width: 1px;"/><path class="xgrid crisp" transform="translate(265.26,0)" d="M0,100v332" style="stroke: rgb(255, 255, 255); stroke-opacity: 1; stroke-width: 1px;"/><path class="xgrid crisp" transform="translate(288.41999999999996,0)" d="M0,100v332" style="stroke: rgb(255, 255, 255); stroke-opacity: 1; stroke-width: 1px;"/><path class="xgrid crisp" transform="translate(311.58000000000004,0)" d="M0,100v332" style="stroke: rgb(255, 255, 255); stroke-opacity: 1; stroke-width: 1px;"/><path class="xgrid crisp" transform="translate(334.74,0)" d="M0,100v332" style="stroke: rgb(255, 255, 255); stroke-opacity: 1; stroke-width: 1px;"/><path class="xgrid crisp" transform="translate(357.89,0)" d="M0,100v332" style="stroke: rgb(255, 255, 255); stroke-opacity: 1; stroke-width: 1px;"/><path class="xgrid crisp" transform="translate(381.05,0)" d="M0,100v332" style="stroke: rgb(255, 255, 255); stroke-opacity: 1; stroke-width: 1px;"/><path class="xgrid crisp" transform="translate(404.21,0)" d="M0,100v332" style="stroke: rgb(255, 255, 255); stroke-opacity: 1; stroke-width: 1px;"/><path class="xgrid crisp" transform="translate(427.37,0)" d="M0,100v332" style="stroke: rgb(255, 255, 255); stroke-opacity: 1; stroke-width: 1px;"/><path class="xgrid crisp" transform="translate(450.53,0)" d="M0,100v332" style="stroke: rgb(255, 255, 255); stroke-opacity: 1; stroke-width: 1px;"/><path class="xgrid crisp" transform="translate(473.68,0)" d="M0,100v332" style="stroke: rgb(255, 255, 255); stroke-opacity: 1; stroke-width: 1px;"/><path class="xgrid crisp" transform="translate(496.84,0)" d="M0,100v332" style="stroke: rgb(255, 255, 255); stroke-opacity: 1; stroke-width: 1px;"/><path class="xgrid crisp" transform="translate(520,0)" d="M0,100v332" style="stroke: rgb(255, 255, 255); stroke-opacity: 1; stroke-width: 1px;"/><path class="xgrid crisp" transform="translate(543.1600000000001,0)" d="M0,100v332" style="stroke: rgb(255, 255, 255); stroke-opacity: 1; stroke-width: 1px;"/><path class="xgrid crisp" transform="translate(566.3199999999999,0)" d="M0,100v332" style="stroke: rgb(255, 255, 255); stroke-opacity: 1; stroke-width: 1px;"/><path class="xgrid crisp" transform="translate(589.47,0)" d="M0,100v332" style="stroke: rgb(255, 255, 255); stroke-opacity: 1; stroke-width: 1px;"/><path class="xgrid crisp" transform="translate(612.63,0)" d="M0,100v332" style="stroke: rgb(255, 255, 255); stroke-opacity: 1; stroke-width: 1px;"/><path class="xgrid crisp" transform="translate(635.79,0)" d="M0,100v332" style="stroke: rgb(255, 255, 255); stroke-opacity: 1; stroke-width: 1px;"/><path class="xgrid crisp" transform="translate(658.95,0)" d="M0,100v332" style="stroke: rgb(255, 255, 255); stroke-opacity: 1; stroke-width: 1px;"/><path class="xgrid crisp" transform="translate(682.11,0)" d="M0,100v332" style="stroke: rgb(255, 255, 255); stroke-opacity: 1; stroke-width: 1px;"/><path class="xgrid crisp" transform="translate(705.26,0)" d="M0,100v332" style="stroke: rgb(255, 255, 255); stroke-opacity: 1; stroke-width: 1px;"/><path class="xgrid crisp" transform="translate(728.42,0)" d="M0,100v332" style="stroke: rgb(255, 255, 255); stroke-opacity: 1; stroke-width: 1px;"/><path class="xgrid crisp" transform="translate(751.58,0)" d="M0,100v332" style="stroke: rgb(255, 255, 255); stroke-opacity: 1; stroke-width: 1px;"/><path class="xgrid crisp" transform="translate(774.74,0)" d="M0,100v332" style="stroke: rgb(255, 255, 255); stroke-opacity: 1; stroke-width: 1px;"/><path class="xgrid crisp" transform="translate(797.89,0)" d="M0,100v332" style="stroke: rgb(255, 255, 255); stroke-opacity: 1; stroke-width: 1px;"/><path class="xgrid crisp" transform="translate(821.05,0)" d="M0,100v332" style="stroke: rgb(255, 255, 255); stroke-opacity: 1; stroke-width: 1px;"/><path class="xgrid crisp" transform="translate(844.21,0)" d="M0,100v332" style="stroke: rgb(255, 255, 255); stroke-opacity: 1; stroke-width: 1px;"/><path class="xgrid crisp" transform="translate(867.37,0)" d="M0,100v332" style="stroke: rgb(255, 255, 255); stroke-opacity: 1; stroke-width: 1px;"/><path class="xgrid crisp" transform="translate(890.53,0)" d="M0,100v332" style="stroke: rgb(255, 255, 255); stroke-opacity: 1; stroke-width: 1px;"/><path class="xgrid crisp" transform="translate(913.68,0)" d="M0,100v332" style="stroke: rgb(255, 255, 255); stroke-opacity: 1; stroke-width: 1px;"/><path class="xgrid crisp" transform="translate(936.84,0)" d="M0,100v332" style="stroke: rgb(255, 255, 255); stroke-opacity: 1; stroke-width: 1px;"/><path class="xgrid crisp" transform="translate(960,0)" d="M0,100v332" style="stroke: rgb(255, 255, 255); stroke-opacity: 1; stroke-width: 1px;"/><path class="xgrid crisp" transform="translate(983.16,0)" d="M0,100v332" style="stroke: rgb(255, 255, 255); stroke-opacity: 1; stroke-width: 1px;"/><path class="xgrid crisp" transform="translate(1006.32,0)" d="M0,100v332" style="stroke: rgb(255, 255, 255); stroke-opacity: 1; stroke-width: 1px;"/><path class="xgrid crisp" transform="translate(1029.47,0)" d="M0,100v332" style="stroke: rgb(255, 255, 255); stroke-opacity: 1; stroke-width: 1px;"/><path class="xgrid crisp" transform="translate(1052.63,0)" d="M0,100v332" style="stroke: rgb(255, 255, 255); stroke-opacity: 1; stroke-width: 1px;"/><path class="xgrid crisp" transform="translate(1075.79,0)" d="M0,100v332" style="stroke: rgb(255, 255, 255); stroke-opacity: 1; stroke-width: 1px;"/><path class="xgrid crisp" transform="translate(1098.95,0)" d="M0,100v332" style="stroke: rgb(255, 255, 255); stroke-opacity: 1; stroke-width: 1px;"/><path class="xgrid crisp" transform="translate(1122.11,0)" d="M0,100v332" style="stroke: rgb(255, 255, 255); stroke-opacity: 1; stroke-width: 1px;"/><path class="xgrid crisp" transform="translate(1145.26,0)" d="M0,100v332" style="stroke: rgb(255, 255, 255); stroke-opacity: 1; stroke-width: 1px;"/><path class="xgrid crisp" transform="translate(1168.42,0)" d="M0,100v332" style="stroke: rgb(255, 255, 255); stroke-opacity: 1; stroke-width: 1px;"/><path class="xgrid crisp" transform="translate(1191.58,0)" d="M0,100v332" style="stroke: rgb(255, 255, 255); stroke-opacity: 1; stroke-width: 1px;"/><path class="xgrid crisp" transform="translate(1214.74,0)" d="M0,100v332" style="stroke: rgb(255, 255, 255); stroke-opacity: 1; stroke-width: 1px;"/><path class="xgrid crisp" transform="translate(1237.89,0)" d="M0,100v332" style="stroke: rgb(255, 255, 255); stroke-opacity: 1; stroke-width: 1px;"/><path class="xgrid crisp" transform="translate(1261.05,0)" d="M0,100v332" style="stroke: rgb(255, 255, 255); stroke-opacity: 1; stroke-width: 1px;"/><path class="xgrid crisp" transform="translate(1284.21,0)" d="M0,100v332" style="stroke: rgb(255, 255, 255); stroke-opacity: 1; stroke-width: 1px;"/><path class="xgrid crisp" transform="translate(1307.37,0)" d="M0,100v332" style="stroke: rgb(255, 255, 255); stroke-opacity: 1; stroke-width: 1px;"/><path class="xgrid crisp" transform="translate(1330.53,0)" d="M0,100v332" style="stroke: rgb(255, 255, 255); stroke-opacity: 1; stroke-width: 1px;"/><path class="xgrid crisp" transform="translate(1353.68,0)" d="M0,100v332" style="stroke: rgb(255, 255, 255); stroke-opacity: 1; stroke-width: 1px;"/><path class="xgrid crisp" transform="translate(1376.84,0)" d="M0,100v332" style="stroke: rgb(255, 255, 255); stroke-opacity: 1; stroke-width: 1px;"/><path class="xgrid crisp" transform="translate(1400,0)" d="M0,100v332" style="stroke: rgb(255, 255, 255); stroke-opacity: 1; stroke-width: 1px;"/><path class="xgrid crisp" transform="translate(1423.16,0)" d="M0,100v332" style="stroke: rgb(255, 255, 255); stroke-opacity: 1; stroke-width: 1px;"/><path class="xgrid crisp" transform="translate(1446.32,0)" d="M0,100v332" style="stroke: rgb(255, 255, 255); stroke-opacity: 1; stroke-width: 1px;"/><path class="xgrid crisp" transform="translate(1469.47,0)" d="M0,100v332" style="stroke: rgb(255, 255, 255); stroke-opacity: 1; stroke-width: 1px;"/><path class="xgrid crisp" transform="translate(1492.63,0)" d="M0,100v332" style="stroke: rgb(255, 255, 255); stroke-opacity: 1; stroke-width: 1px;"/><path class="xgrid crisp" transform="translate(1515.79,0)" d="M0,100v332" style="stroke: rgb(255, 255, 255); stroke-opacity: 1; stroke-width: 1px;"/><path class="xgrid crisp" transform="translate(1538.95,0)" d="M0,100v332" style="stroke: rgb(255, 255, 255); stroke-opacity: 1; stroke-width: 1px;"/><path class="xgrid crisp" transform="translate(1562.11,0)" d="M0,100v332" style="stroke: rgb(255, 255, 255); stroke-opacity: 1; stroke-width: 1px;"/><path class="xgrid crisp" transform="translate(1585.26,0)" d="M0,100v332" style="stroke: rgb(255, 255, 255); stroke-opacity: 1; stroke-width: 1px;"/><path class="xgrid crisp" transform="translate(1608.42,0)" d="M0,100v332" style="stroke: rgb(255, 255, 255); stroke-opacity: 1; stroke-width: 1px;"/><path class="xgrid crisp" transform="translate(1631.58,0)" d="M0,100v332" style="stroke: rgb(255, 255, 255); stroke-opacity: 1; stroke-width: 1px;"/><path class="xgrid crisp" transform="translate(1654.74,0)" d="M0,100v332" style="stroke: rgb(255, 255, 255); stroke-opacity: 1; stroke-width: 1px;"/><path class="xgrid crisp" transform="translate(1677.89,0)" d="M0,100v332" style="stroke: rgb(255, 255, 255); stroke-opacity: 1; stroke-width: 1px;"/><path class="xgrid crisp" transform="translate(1701.05,0)" d="M0,100v332" style="stroke: rgb(255, 255, 255); stroke-opacity: 1; stroke-width: 1px;"/><path class="xgrid crisp" transform="translate(1724.21,0)" d="M0,100v332" style="stroke: rgb(255, 255, 255); stroke-opacity: 1; stroke-width: 1px;"/><path class="xgrid crisp" transform="translate(1747.37,0)" d="M0,100v332" style="stroke: rgb(255, 255, 255); stroke-opacity: 1; stroke-width: 1px;"/><path class="xgrid crisp" transform="translate(1770.53,0)" d="M0,100v332" style="stroke: rgb(255, 255, 255); stroke-opacity: 1; stroke-width: 1px;"/><path class="xgrid crisp" transform="translate(1793.68,0)" d="M0,100v332" style="stroke: rgb(255, 255, 255); stroke-opacity: 1; stroke-width: 1px;"/><path class="xgrid crisp" transform="translate(1816.84,0)" d="M0,100v332" style="stroke: rgb(255, 255, 255); stroke-opacity: 1; stroke-width: 1px;"/></g><g class="y"><path class="ygrid crisp" transform="translate(0,360.74)" d="M80,0h1760" style="stroke: rgb(255, 255, 255); stroke-opacity: 1; stroke-width: 1px;"/><path class="ygrid crisp" transform="translate(0,300.01)" d="M80,0h1760" style="stroke: rgb(255, 255, 255); stroke-opacity: 1; stroke-width: 1px;"/><path class="ygrid crisp" transform="translate(0,239.28)" d="M80,0h1760" style="stroke: rgb(255, 255, 255); stroke-opacity: 1; stroke-width: 1px;"/><path class="ygrid crisp" transform="translate(0,178.55)" d="M80,0h1760" style="stroke: rgb(255, 255, 255); stroke-opacity: 1; stroke-width: 1px;"/><path class="ygrid crisp" transform="translate(0,117.81)" d="M80,0h1760" style="stroke: rgb(255, 255, 255); stroke-opacity: 1; stroke-width: 1px;"/></g></g><g class="zerolinelayer"><path class="yzl zl crisp" transform="translate(0,421.47)" d="M80,0h1760" style="stroke: rgb(255, 255, 255); stroke-opacity: 1; stroke-width: 2px;"/></g><g class="layer-between"><g class="shapelayer"/><g class="imagelayer"/></g><path class="xlines-below"/><path class="ylines-below"/><g class="overlines-below"/><g class="xaxislayer-below"/><g class="yaxislayer-below"/><g class="overaxes-below"/><g class="overplot"><g class="xy" transform="translate(80,100)" clip-path="url(#clipbb5135xyplot)"><g class="scatterlayer mlayer"><g class="trace scatter trace0ec238" style="stroke-miterlimit: 2; opacity: 1;"><g class="fills"/><g class="errorbars"/><g class="lines"><path class="js-line" d="M0,170.86L11.58,185.43L23.16,86.44L34.74,204.26L46.32,99.2L57.89,254.67L69.47,198.8L81.05,95.55L92.63,271.07L104.21,107.7L115.79,126.52L127.37,39.07L138.95,160.53L150.53,125.31L162.11,173.29L173.68,289.29L185.26,110.73L196.84,171.47L208.42,165.39L220,114.99L231.58,214.59L243.16,176.93L254.74,231.59L266.32,167.82L277.89,190.29L289.47,244.34L301.05,285.64L312.63,292.32L324.21,196.97L335.79,203.65L347.37,215.19L358.95,200.62L370.53,16.6L382.11,276.53L393.68,152.64L405.26,189.08L416.84,150.21L428.42,196.37L440,169.04L451.58,144.14L463.16,155.68L474.74,285.64L486.32,169.04L497.89,166.61L509.47,257.7L521.05,195.15L532.63,188.47L544.21,265.6L555.79,219.44L567.37,175.11L578.95,163.57L590.53,80.98L602.11,172.68L613.68,101.62L625.26,215.19L636.84,293.54L648.42,217.62L671.58,172.68L683.16,297.79L694.74,221.87L706.32,164.79L717.89,269.85L729.47,101.02L741.05,175.72L752.63,269.24L764.21,123.49L775.79,144.74L787.37,259.53L798.95,163.57L810.53,126.52L822.11,203.05L833.68,238.88L845.26,213.98L856.84,209.12L868.42,200.62L880,168.43L891.58,315.4L903.16,269.24L914.74,136.24L926.32,29.96L937.89,149L949.47,261.35L961.05,209.12L972.63,279.57L984.21,244.34L995.79,226.73L1007.37,276.53L1018.95,227.95L1030.53,187.26L1042.11,283.82L1053.68,133.2L1065.26,286.86L1076.84,198.19L1088.42,200.62L1100,186.65L1111.58,248.6L1123.16,155.07L1134.74,190.29L1146.32,209.73L1157.89,275.92L1169.47,68.22L1181.05,288.68L1192.63,241.31L1204.21,268.03L1215.79,188.47L1227.37,269.85L1238.95,222.48L1250.53,187.26L1262.11,189.08L1273.68,149.6L1285.26,133.81L1296.84,166.61L1308.42,228.55L1320,204.87L1331.58,114.38L1354.74,249.2L1366.32,201.83L1377.89,181.18L1389.47,130.17L1401.05,190.29L1412.63,172.07L1424.21,215.8L1435.79,264.39L1447.37,179.97L1458.95,258.92L1470.53,74.9L1482.11,184.83L1493.68,285.03L1505.26,184.83L1516.84,113.16L1528.42,263.17L1540,119.24L1551.58,142.31L1563.16,96.16L1574.74,238.27L1586.32,156.28L1597.89,93.73L1609.47,308.11L1621.05,208.51L1632.63,52.43L1644.21,145.96L1655.79,135.03L1667.37,217.01L1678.95,195.76L1690.53,196.97L1702.11,299.61L1713.68,207.3L1725.26,268.03L1736.84,213.98L1748.42,200.62L1760,272.89" style="vector-effect: none; fill: none; stroke: rgb(102, 204, 255); stroke-opacity: 1; stroke-width: 2px; opacity: 1;"/></g><g class="points"/><g class="text"/></g></g></g></g><path class="xlines-above crisp" d="M0,0" style="fill: none;"/><path class="ylines-above crisp" d="M0,0" style="fill: none;"/><g class="overlines-above"/><g class="xaxislayer-above"><g class="xtick"><text text-anchor="start" x="0" y="445" transform="translate(80,0) rotate(90,0,439)" style="font-family: Arial; font-size: 12px; fill: rgb(42, 63, 95); fill-opacity: 1; white-space: pre; opacity: 1;">8/6/2024</text></g><g class="xtick"><text text-anchor="start" x="0" y="445" transform="translate(103.16,0) rotate(90,0,439)" style="font-family: Arial; font-size: 12px; fill: rgb(42, 63, 95); fill-opacity: 1; white-space: pre; opacity: 1;">9/19/2024</text></g><g class="xtick"><text text-anchor="start" x="0" y="445" transform="translate(126.32,0) rotate(90,0,439)" style="font-family: Arial; font-size: 12px; fill: rgb(42, 63, 95); fill-opacity: 1; white-space: pre; opacity: 1;">9/12/2024</text></g><g class="xtick"><text text-anchor="start" x="0" y="445" transform="translate(149.47,0) rotate(90,0,439)" style="font-family: Arial; font-size: 12px; fill: rgb(42, 63, 95); fill-opacity: 1; white-space: pre; opacity: 1;">7/16/2024</text></g><g class="xtick"><text text-anchor="start" x="0" y="445" transform="translate(172.63,0) rotate(90,0,439)" style="font-family: Arial; font-size: 12px; fill: rgb(42, 63, 95); fill-opacity: 1; white-space: pre; opacity: 1;">6/15/2024</text></g><g class="xtick"><text text-anchor="start" x="0" y="445" transform="translate(195.79000000000002,0) rotate(90,0,439)" style="font-family: Arial; font-size: 12px; fill: rgb(42, 63, 95); fill-opacity: 1; white-space: pre; opacity: 1;">8/22/2024</text></g><g class="xtick"><text text-anchor="start" x="0" y="445" transform="translate(218.95,0) rotate(90,0,439)" style="font-family: Arial; font-size: 12px; fill: rgb(42, 63, 95); fill-opacity: 1; white-space: pre; opacity: 1;">6/26/2024</text></g><g class="xtick"><text text-anchor="start" x="0" y="445" transform="translate(242.11,0) rotate(90,0,439)" style="font-family: Arial; font-size: 12px; fill: rgb(42, 63, 95); fill-opacity: 1; white-space: pre; opacity: 1;">9/30/2024</text></g><g class="xtick"><text text-anchor="start" x="0" y="445" transform="translate(265.26,0) rotate(90,0,439)" style="font-family: Arial; font-size: 12px; fill: rgb(42, 63, 95); fill-opacity: 1; white-space: pre; opacity: 1;">8/21/2024</text></g><g class="xtick"><text text-anchor="start" x="0" y="445" transform="translate(288.41999999999996,0) rotate(90,0,439)" style="font-family: Arial; font-size: 12px; fill: rgb(42, 63, 95); fill-opacity: 1; white-space: pre; opacity: 1;">8/14/2024</text></g><g class="xtick"><text text-anchor="start" x="0" y="445" transform="translate(311.58000000000004,0) rotate(90,0,439)" style="font-family: Arial; font-size: 12px; fill: rgb(42, 63, 95); fill-opacity: 1; white-space: pre; opacity: 1;">7/18/2024</text></g><g class="xtick"><text text-anchor="start" x="0" y="445" transform="translate(334.74,0) rotate(90,0,439)" style="font-family: Arial; font-size: 12px; fill: rgb(42, 63, 95); fill-opacity: 1; white-space: pre; opacity: 1;">7/20/2024</text></g><g class="xtick"><text text-anchor="start" x="0" y="445" transform="translate(357.89,0) rotate(90,0,439)" style="font-family: Arial; font-size: 12px; fill: rgb(42, 63, 95); fill-opacity: 1; white-space: pre; opacity: 1;">7/22/2024</text></g><g class="xtick"><text text-anchor="start" x="0" y="445" transform="translate(381.05,0) rotate(90,0,439)" style="font-family: Arial; font-size: 12px; fill: rgb(42, 63, 95); fill-opacity: 1; white-space: pre; opacity: 1;">6/23/2024</text></g><g class="xtick"><text text-anchor="start" x="0" y="445" transform="translate(404.21,0) rotate(90,0,439)" style="font-family: Arial; font-size: 12px; fill: rgb(42, 63, 95); fill-opacity: 1; white-space: pre; opacity: 1;">5/7/2024</text></g><g class="xtick"><text text-anchor="start" x="0" y="445" transform="translate(427.37,0) rotate(90,0,439)" style="font-family: Arial; font-size: 12px; fill: rgb(42, 63, 95); fill-opacity: 1; white-space: pre; opacity: 1;">8/19/2024</text></g><g class="xtick"><text text-anchor="start" x="0" y="445" transform="translate(450.53,0) rotate(90,0,439)" style="font-family: Arial; font-size: 12px; fill: rgb(42, 63, 95); fill-opacity: 1; white-space: pre; opacity: 1;">9/4/2024</text></g><g class="xtick"><text text-anchor="start" x="0" y="445" transform="translate(473.68,0) rotate(90,0,439)" style="font-family: Arial; font-size: 12px; fill: rgb(42, 63, 95); fill-opacity: 1; white-space: pre; opacity: 1;">5/11/2024</text></g><g class="xtick"><text text-anchor="start" x="0" y="445" transform="translate(496.84,0) rotate(90,0,439)" style="font-family: Arial; font-size: 12px; fill: rgb(42, 63, 95); fill-opacity: 1; white-space: pre; opacity: 1;">9/13/2024</text></g><g class="xtick"><text text-anchor="start" x="0" y="445" transform="translate(520,0) rotate(90,0,439)" style="font-family: Arial; font-size: 12px; fill: rgb(42, 63, 95); fill-opacity: 1; white-space: pre; opacity: 1;">6/28/2024</text></g><g class="xtick"><text text-anchor="start" x="0" y="445" transform="translate(543.1600000000001,0) rotate(90,0,439)" style="font-family: Arial; font-size: 12px; fill: rgb(42, 63, 95); fill-opacity: 1; white-space: pre; opacity: 1;">5/10/2024</text></g><g class="xtick"><text text-anchor="start" x="0" y="445" transform="translate(566.3199999999999,0) rotate(90,0,439)" style="font-family: Arial; font-size: 12px; fill: rgb(42, 63, 95); fill-opacity: 1; white-space: pre; opacity: 1;">8/9/2024</text></g><g class="xtick"><text text-anchor="start" x="0" y="445" transform="translate(589.47,0) rotate(90,0,439)" style="font-family: Arial; font-size: 12px; fill: rgb(42, 63, 95); fill-opacity: 1; white-space: pre; opacity: 1;">6/29/2024</text></g><g class="xtick"><text text-anchor="start" x="0" y="445" transform="translate(612.63,0) rotate(90,0,439)" style="font-family: Arial; font-size: 12px; fill: rgb(42, 63, 95); fill-opacity: 1; white-space: pre; opacity: 1;">9/21/2024</text></g><g class="xtick"><text text-anchor="start" x="0" y="445" transform="translate(635.79,0) rotate(90,0,439)" style="font-family: Arial; font-size: 12px; fill: rgb(42, 63, 95); fill-opacity: 1; white-space: pre; opacity: 1;">8/26/2024</text></g><g class="xtick"><text text-anchor="start" x="0" y="445" transform="translate(658.95,0) rotate(90,0,439)" style="font-family: Arial; font-size: 12px; fill: rgb(42, 63, 95); fill-opacity: 1; white-space: pre; opacity: 1;">8/27/2024</text></g><g class="xtick"><text text-anchor="start" x="0" y="445" transform="translate(682.11,0) rotate(90,0,439)" style="font-family: Arial; font-size: 12px; fill: rgb(42, 63, 95); fill-opacity: 1; white-space: pre; opacity: 1;">6/20/2024</text></g><g class="xtick"><text text-anchor="start" x="0" y="445" transform="translate(705.26,0) rotate(90,0,439)" style="font-family: Arial; font-size: 12px; fill: rgb(42, 63, 95); fill-opacity: 1; white-space: pre; opacity: 1;">5/29/2024</text></g><g class="xtick"><text text-anchor="start" x="0" y="445" transform="translate(728.42,0) rotate(90,0,439)" style="font-family: Arial; font-size: 12px; fill: rgb(42, 63, 95); fill-opacity: 1; white-space: pre; opacity: 1;">7/15/2024</text></g><g class="xtick"><text text-anchor="start" x="0" y="445" transform="translate(751.58,0) rotate(90,0,439)" style="font-family: Arial; font-size: 12px; fill: rgb(42, 63, 95); fill-opacity: 1; white-space: pre; opacity: 1;">7/23/2024</text></g><g class="xtick"><text text-anchor="start" x="0" y="445" transform="translate(774.74,0) rotate(90,0,439)" style="font-family: Arial; font-size: 12px; fill: rgb(42, 63, 95); fill-opacity: 1; white-space: pre; opacity: 1;">5/23/2024</text></g><g class="xtick"><text text-anchor="start" x="0" y="445" transform="translate(797.89,0) rotate(90,0,439)" style="font-family: Arial; font-size: 12px; fill: rgb(42, 63, 95); fill-opacity: 1; white-space: pre; opacity: 1;">5/6/2024</text></g><g class="xtick"><text text-anchor="start" x="0" y="445" transform="translate(821.05,0) rotate(90,0,439)" style="font-family: Arial; font-size: 12px; fill: rgb(42, 63, 95); fill-opacity: 1; white-space: pre; opacity: 1;">6/6/2024</text></g><g class="xtick"><text text-anchor="start" x="0" y="445" transform="translate(844.21,0) rotate(90,0,439)" style="font-family: Arial; font-size: 12px; fill: rgb(42, 63, 95); fill-opacity: 1; white-space: pre; opacity: 1;">8/1/2024</text></g><g class="xtick"><text text-anchor="start" x="0" y="445" transform="translate(867.37,0) rotate(90,0,439)" style="font-family: Arial; font-size: 12px; fill: rgb(42, 63, 95); fill-opacity: 1; white-space: pre; opacity: 1;">8/31/2024</text></g><g class="xtick"><text text-anchor="start" x="0" y="445" transform="translate(890.53,0) rotate(90,0,439)" style="font-family: Arial; font-size: 12px; fill: rgb(42, 63, 95); fill-opacity: 1; white-space: pre; opacity: 1;">6/5/2024</text></g><g class="xtick"><text text-anchor="start" x="0" y="445" transform="translate(913.68,0) rotate(90,0,439)" style="font-family: Arial; font-size: 12px; fill: rgb(42, 63, 95); fill-opacity: 1; white-space: pre; opacity: 1;">5/14/2024</text></g><g class="xtick"><text text-anchor="start" x="0" y="445" transform="translate(936.84,0) rotate(90,0,439)" style="font-family: Arial; font-size: 12px; fill: rgb(42, 63, 95); fill-opacity: 1; white-space: pre; opacity: 1;">6/17/2024</text></g><g class="xtick"><text text-anchor="start" x="0" y="445" transform="translate(960,0) rotate(90,0,439)" style="font-family: Arial; font-size: 12px; fill: rgb(42, 63, 95); fill-opacity: 1; white-space: pre; opacity: 1;">6/1/2024</text></g><g class="xtick"><text text-anchor="start" x="0" y="445" transform="translate(983.16,0) rotate(90,0,439)" style="font-family: Arial; font-size: 12px; fill: rgb(42, 63, 95); fill-opacity: 1; white-space: pre; opacity: 1;">8/18/2024</text></g><g class="xtick"><text text-anchor="start" x="0" y="445" transform="translate(1006.32,0) rotate(90,0,439)" style="font-family: Arial; font-size: 12px; fill: rgb(42, 63, 95); fill-opacity: 1; white-space: pre; opacity: 1;">9/26/2024</text></g><g class="xtick"><text text-anchor="start" x="0" y="445" transform="translate(1029.47,0) rotate(90,0,439)" style="font-family: Arial; font-size: 12px; fill: rgb(42, 63, 95); fill-opacity: 1; white-space: pre; opacity: 1;">5/26/2024</text></g><g class="xtick"><text text-anchor="start" x="0" y="445" transform="translate(1052.63,0) rotate(90,0,439)" style="font-family: Arial; font-size: 12px; fill: rgb(42, 63, 95); fill-opacity: 1; white-space: pre; opacity: 1;">7/28/2024</text></g><g class="xtick"><text text-anchor="start" x="0" y="445" transform="translate(1075.79,0) rotate(90,0,439)" style="font-family: Arial; font-size: 12px; fill: rgb(42, 63, 95); fill-opacity: 1; white-space: pre; opacity: 1;">5/2/2024</text></g><g class="xtick"><text text-anchor="start" x="0" y="445" transform="translate(1098.95,0) rotate(90,0,439)" style="font-family: Arial; font-size: 12px; fill: rgb(42, 63, 95); fill-opacity: 1; white-space: pre; opacity: 1;">9/29/2024</text></g><g class="xtick"><text text-anchor="start" x="0" y="445" transform="translate(1122.11,0) rotate(90,0,439)" style="font-family: Arial; font-size: 12px; fill: rgb(42, 63, 95); fill-opacity: 1; white-space: pre; opacity: 1;">8/25/2024</text></g><g class="xtick"><text text-anchor="start" x="0" y="445" transform="translate(1145.26,0) rotate(90,0,439)" style="font-family: Arial; font-size: 12px; fill: rgb(42, 63, 95); fill-opacity: 1; white-space: pre; opacity: 1;">9/15/2024</text></g><g class="xtick"><text text-anchor="start" x="0" y="445" transform="translate(1168.42,0) rotate(90,0,439)" style="font-family: Arial; font-size: 12px; fill: rgb(42, 63, 95); fill-opacity: 1; white-space: pre; opacity: 1;">5/4/2024</text></g><g class="xtick"><text text-anchor="start" x="0" y="445" transform="translate(1191.58,0) rotate(90,0,439)" style="font-family: Arial; font-size: 12px; fill: rgb(42, 63, 95); fill-opacity: 1; white-space: pre; opacity: 1;">6/3/2024</text></g><g class="xtick"><text text-anchor="start" x="0" y="445" transform="translate(1214.74,0) rotate(90,0,439)" style="font-family: Arial; font-size: 12px; fill: rgb(42, 63, 95); fill-opacity: 1; white-space: pre; opacity: 1;">7/10/2024</text></g><g class="xtick"><text text-anchor="start" x="0" y="445" transform="translate(1237.89,0) rotate(90,0,439)" style="font-family: Arial; font-size: 12px; fill: rgb(42, 63, 95); fill-opacity: 1; white-space: pre; opacity: 1;">7/4/2024</text></g><g class="xtick"><text text-anchor="start" x="0" y="445" transform="translate(1261.05,0) rotate(90,0,439)" style="font-family: Arial; font-size: 12px; fill: rgb(42, 63, 95); fill-opacity: 1; white-space: pre; opacity: 1;">8/3/2024</text></g><g class="xtick"><text text-anchor="start" x="0" y="445" transform="translate(1284.21,0) rotate(90,0,439)" style="font-family: Arial; font-size: 12px; fill: rgb(42, 63, 95); fill-opacity: 1; white-space: pre; opacity: 1;">9/22/2024</text></g><g class="xtick"><text text-anchor="start" x="0" y="445" transform="translate(1307.37,0) rotate(90,0,439)" style="font-family: Arial; font-size: 12px; fill: rgb(42, 63, 95); fill-opacity: 1; white-space: pre; opacity: 1;">8/10/2024</text></g><g class="xtick"><text text-anchor="start" x="0" y="445" transform="translate(1330.53,0) rotate(90,0,439)" style="font-family: Arial; font-size: 12px; fill: rgb(42, 63, 95); fill-opacity: 1; white-space: pre; opacity: 1;">9/23/2024</text></g><g class="xtick"><text text-anchor="start" x="0" y="445" transform="translate(1353.68,0) rotate(90,0,439)" style="font-family: Arial; font-size: 12px; fill: rgb(42, 63, 95); fill-opacity: 1; white-space: pre; opacity: 1;">9/20/2024</text></g><g class="xtick"><text text-anchor="start" x="0" y="445" transform="translate(1376.84,0) rotate(90,0,439)" style="font-family: Arial; font-size: 12px; fill: rgb(42, 63, 95); fill-opacity: 1; white-space: pre; opacity: 1;">9/3/2024</text></g><g class="xtick"><text text-anchor="start" x="0" y="445" transform="translate(1400,0) rotate(90,0,439)" style="font-family: Arial; font-size: 12px; fill: rgb(42, 63, 95); fill-opacity: 1; white-space: pre; opacity: 1;">7/25/2024</text></g><g class="xtick"><text text-anchor="start" x="0" y="445" transform="translate(1423.16,0) rotate(90,0,439)" style="font-family: Arial; font-size: 12px; fill: rgb(42, 63, 95); fill-opacity: 1; white-space: pre; opacity: 1;">5/30/2024</text></g><g class="xtick"><text text-anchor="start" x="0" y="445" transform="translate(1446.32,0) rotate(90,0,439)" style="font-family: Arial; font-size: 12px; fill: rgb(42, 63, 95); fill-opacity: 1; white-space: pre; opacity: 1;">7/5/2024</text></g><g class="xtick"><text text-anchor="start" x="0" y="445" transform="translate(1469.47,0) rotate(90,0,439)" style="font-family: Arial; font-size: 12px; fill: rgb(42, 63, 95); fill-opacity: 1; white-space: pre; opacity: 1;">6/14/2024</text></g><g class="xtick"><text text-anchor="start" x="0" y="445" transform="translate(1492.63,0) rotate(90,0,439)" style="font-family: Arial; font-size: 12px; fill: rgb(42, 63, 95); fill-opacity: 1; white-space: pre; opacity: 1;">7/17/2024</text></g><g class="xtick"><text text-anchor="start" x="0" y="445" transform="translate(1515.79,0) rotate(90,0,439)" style="font-family: Arial; font-size: 12px; fill: rgb(42, 63, 95); fill-opacity: 1; white-space: pre; opacity: 1;">9/14/2024</text></g><g class="xtick"><text text-anchor="start" x="0" y="445" transform="translate(1538.95,0) rotate(90,0,439)" style="font-family: Arial; font-size: 12px; fill: rgb(42, 63, 95); fill-opacity: 1; white-space: pre; opacity: 1;">7/13/2024</text></g><g class="xtick"><text text-anchor="start" x="0" y="445" transform="translate(1562.11,0) rotate(90,0,439)" style="font-family: Arial; font-size: 12px; fill: rgb(42, 63, 95); fill-opacity: 1; white-space: pre; opacity: 1;">7/26/2024</text></g><g class="xtick"><text text-anchor="start" x="0" y="445" transform="translate(1585.26,0) rotate(90,0,439)" style="font-family: Arial; font-size: 12px; fill: rgb(42, 63, 95); fill-opacity: 1; white-space: pre; opacity: 1;">7/12/2024</text></g><g class="xtick"><text text-anchor="start" x="0" y="445" transform="translate(1608.42,0) rotate(90,0,439)" style="font-family: Arial; font-size: 12px; fill: rgb(42, 63, 95); fill-opacity: 1; white-space: pre; opacity: 1;">7/6/2024</text></g><g class="xtick"><text text-anchor="start" x="0" y="445" transform="translate(1631.58,0) rotate(90,0,439)" style="font-family: Arial; font-size: 12px; fill: rgb(42, 63, 95); fill-opacity: 1; white-space: pre; opacity: 1;">8/30/2024</text></g><g class="xtick"><text text-anchor="start" x="0" y="445" transform="translate(1654.74,0) rotate(90,0,439)" style="font-family: Arial; font-size: 12px; fill: rgb(42, 63, 95); fill-opacity: 1; white-space: pre; opacity: 1;">8/24/2024</text></g><g class="xtick"><text text-anchor="start" x="0" y="445" transform="translate(1677.89,0) rotate(90,0,439)" style="font-family: Arial; font-size: 12px; fill: rgb(42, 63, 95); fill-opacity: 1; white-space: pre; opacity: 1;">8/13/2024</text></g><g class="xtick"><text text-anchor="start" x="0" y="445" transform="translate(1701.05,0) rotate(90,0,439)" style="font-family: Arial; font-size: 12px; fill: rgb(42, 63, 95); fill-opacity: 1; white-space: pre; opacity: 1;">7/8/2024</text></g><g class="xtick"><text text-anchor="start" x="0" y="445" transform="translate(1724.21,0) rotate(90,0,439)" style="font-family: Arial; font-size: 12px; fill: rgb(42, 63, 95); fill-opacity: 1; white-space: pre; opacity: 1;">5/9/2024</text></g><g class="xtick"><text text-anchor="start" x="0" y="445" transform="translate(1747.37,0) rotate(90,0,439)" style="font-family: Arial; font-size: 12px; fill: rgb(42, 63, 95); fill-opacity: 1; white-space: pre; opacity: 1;">6/19/2024</text></g><g class="xtick"><text text-anchor="start" x="0" y="445" transform="translate(1770.53,0) rotate(90,0,439)" style="font-family: Arial; font-size: 12px; fill: rgb(42, 63, 95); fill-opacity: 1; white-space: pre; opacity: 1;">8/29/2024</text></g><g class="xtick"><text text-anchor="start" x="0" y="445" transform="translate(1793.68,0) rotate(90,0,439)" style="font-family: Arial; font-size: 12px; fill: rgb(42, 63, 95); fill-opacity: 1; white-space: pre; opacity: 1;">7/3/2024</text></g><g class="xtick"><text text-anchor="start" x="0" y="445" transform="translate(1816.84,0) rotate(90,0,439)" style="font-family: Arial; font-size: 12px; fill: rgb(42, 63, 95); fill-opacity: 1; white-space: pre; opacity: 1;">5/1/2024</text></g><g class="xtick"><text text-anchor="start" x="0" y="445" transform="translate(1840,0) rotate(90,0,439)" style="font-family: Arial; font-size: 12px; fill: rgb(42, 63, 95); fill-opacity: 1; white-space: pre; opacity: 1;">5/5/2024</text></g></g><g class="yaxislayer-above"><g class="ytick"><text text-anchor="end" x="79" y="4.199999999999999" transform="translate(0,421.47)" style="font-family: Arial; font-size: 12px; fill: rgb(42, 63, 95); fill-opacity: 1; white-space: pre; opacity: 1;">0</text></g><g class="ytick"><text text-anchor="end" x="79" y="4.199999999999999" style="font-family: Arial; font-size: 12px; fill: rgb(42, 63, 95); fill-opacity: 1; white-space: pre; opacity: 1;" transform="translate(0,360.74)">100</text></g><g class="ytick"><text text-anchor="end" x="79" y="4.199999999999999" style="font-family: Arial; font-size: 12px; fill: rgb(42, 63, 95); fill-opacity: 1; white-space: pre; opacity: 1;" transform="translate(0,300.01)">200</text></g><g class="ytick"><text text-anchor="end" x="79" y="4.199999999999999" style="font-family: Arial; font-size: 12px; fill: rgb(42, 63, 95); fill-opacity: 1; white-space: pre; opacity: 1;" transform="translate(0,239.28)">300</text></g><g class="ytick"><text text-anchor="end" x="79" y="4.199999999999999" style="font-family: Arial; font-size: 12px; fill: rgb(42, 63, 95); fill-opacity: 1; white-space: pre; opacity: 1;" transform="translate(0,178.55)">400</text></g><g class="ytick"><text text-anchor="end" x="79" y="4.199999999999999" style="font-family: Arial; font-size: 12px; fill: rgb(42, 63, 95); fill-opacity: 1; white-space: pre; opacity: 1;" transform="translate(0,117.81)">500</text></g></g><g class="overaxes-above"/></g></g><g class="polarlayer"/><g class="smithlayer"/><g class="ternarylayer"/><g class="geolayer"/><g class="funnelarealayer"/><g class="pielayer"/><g class="iciclelayer"/><g class="treemaplayer"/><g class="sunburstlayer"/><g class="glimages"/><defs id="topdefs-bb5135"><g class="clips"/></defs><g class="layer-above"><g class="imagelayer"/><g class="shapelayer"/></g><g class="infolayer"><g class="g-gtitle"><text class="gtitle" x="960" y="50" text-anchor="middle" dy="0em" style="opacity: 1; font-family: Arial; font-size: 30px; fill: rgb(42, 63, 95); fill-opacity: 1; white-space: pre;">Job Posting Trends Over Time</text></g><g class="g-xtitle"><text class="xtitle" x="960" y="527.3" text-anchor="middle" style="opacity: 1; font-family: Arial; font-size: 14px; fill: rgb(42, 63, 95); fill-opacity: 1; white-space: pre;">Posted Date</text></g><g class="g-ytitle"><text class="ytitle" transform="rotate(-90,35.6,266)" x="35.6" y="266" text-anchor="middle" style="opacity: 1; font-family: Arial; font-size: 14px; fill: rgb(42, 63, 95); fill-opacity: 1; white-space: pre;">Number of Job Postings</text></g></g></svg>